PathFileType	4	(X/Y/Z)	c:/Users/goper/Files/vsCode/490R/osim_files/A01/A01_Slow_06.trc
DataRate	CameraRate	NumFrames	NumMarkers	Units                	OrigDataRate	OrigDataStartFrame	OrigNumFrames
120.00	120.00	5	36	mm	120.0	865	1152
                Frame#	Time	Mobility_markerset:LPSIS			Mobility_markerset:LASIS			Mobility_markerset:LTH1			Mobility_markerset:LTH2			Mobility_markerset:LTH3			Mobility_markerset:LTH4			Mobility_markerset:LLFE			Mobility_markerset:LMFE			Mobility_markerset:LSH1			Mobility_markerset:LSH2			Mobility_markerset:LSH3			Mobility_markerset:LSH4			Mobility_markerset:LLMAL			Mobility_markerset:LMMAL			Mobility_markerset:LCAL			Mobility_markerset:LMTP5			Mobility_markerset:LTOE			Mobility_markerset:LMTP1			Mobility_markerset:RPSIS			Mobility_markerset:RASIS			Mobility_markerset:RTH1			Mobility_markerset:RTH2			Mobility_markerset:RTH3			Mobility_markerset:RTH4			Mobility_markerset:RLFE			Mobility_markerset:RMFE			Mobility_markerset:RSH1			Mobility_markerset:RSH2			Mobility_markerset:RSH3			Mobility_markerset:RSH4			Mobility_markerset:RLMAL			Mobility_markerset:RMMAL			Mobility_markerset:RCAL			Mobility_markerset:RMTP1			Mobility_markerset:RTOE			Mobility_markerset:RMTP5		
		X1	Y1	Z1	X2	Y2	Z2	X3	Y3	Z3	X4	Y4	Z4	X5	Y5	Z5	X6	Y6	Z6	X7	Y7	Z7	X8	Y8	Z8	X9	Y9	Z9	X10	Y10	Z10	X11	Y11	Z11	X12	Y12	Z12	X13	Y13	Z13	X14	Y14	Z14	X15	Y15	Z15	X16	Y16	Z16	X17	Y17	Z17	X18	Y18	Z18	X19	Y19	Z19	X20	Y20	Z20	X21	Y21	Z21	X22	Y22	Z22	X23	Y23	Z23	X24	Y24	Z24	X25	Y25	Z25	X26	Y26	Z26	X27	Y27	Z27	X28	Y28	Z28	X29	Y29	Z29	X30	Y30	Z30	X31	Y31	Z31	X32	Y32	Z32	X33	Y33	Z33	X34	Y34	Z34	X35	Y35	Z35	X36	Y36	Z36

865	7.20000	0.00000	0.00000	0.00000	-2841.09863	1032.30029	366.39481	-2834.26953	703.11615	433.15225	-2857.71167	661.08545	430.41797	-2889.54761	727.19794	437.84436	-2904.02368	683.31055	431.40009	-2903.31250	549.35083	405.37057	-2940.97925	543.10406	272.58743	-2772.66138	446.56470	372.94962	-2743.77759	411.12216	373.05728	-2816.61328	403.15182	377.76633	-2780.72095	374.80887	374.19952	-2598.92383	204.37871	329.71640	-2604.78540	209.68857	245.06705	-2525.31982	232.88609	276.14328	-2670.15210	77.95960	359.97665	-2715.40967	80.58462	298.71750	-2700.46973	80.10156	262.58142	-2608.19458	1045.17261	168.87132	-2846.36890	1015.01385	104.47978	-2751.42383	679.32611	41.25939	-2767.93359	639.01471	48.08466	-2812.62354	694.75452	36.74101	-2818.21289	652.63531	42.56636	-2834.36182	508.87079	93.76500	-2842.40503	526.41235	212.64250	-2738.60156	310.83255	98.62006	-2739.33545	265.61429	101.49622	-2800.65771	305.91867	95.40437	-2794.02905	261.67053	98.57507	-2757.16821	88.80100	141.99673	-2783.09692	112.54124	224.30956	-2705.33447	65.75719	195.71150	-2912.39941	49.14032	231.97971	-2944.91113	62.32669	184.51280	-2889.85205	35.91197	117.53696
866	7.20833	0.00000	0.00000	0.00000	-2849.61987	1034.02820	364.35150	-2848.03516	705.52966	432.33649	-2871.90845	664.17712	428.91876	-2903.02490	730.56506	435.90891	-2917.65210	686.35468	429.54889	-2919.31470	552.41803	403.75180	-2954.83472	547.28204	269.89804	-2791.35669	445.52319	371.17255	-2763.37744	408.95779	371.27466	-2836.64624	403.64444	375.61847	-2801.54053	373.93683	372.23911	-2625.46533	198.28081	329.48865	-2629.71729	203.36034	244.12621	-2550.43433	223.67387	275.88620	-2701.42773	74.16283	359.17917	-2745.88037	77.74804	297.45999	-2730.95239	76.83746	261.41974	-2616.09912	1046.25940	168.98708	-2852.96704	1016.06201	102.84220	-2755.34375	679.87000	41.13990	-2771.88867	639.25317	47.79860	-2816.62622	694.73358	36.17818	-2821.90576	652.46863	41.89594	-2836.20703	508.40982	92.78345	-2845.70752	526.00800	211.85753	-2739.59497	311.23050	98.63025	-2740.34155	265.92044	101.33012	-2801.72900	305.96179	94.88524	-2794.79150	261.76596	98.13792	-2757.26025	88.90459	141.93364	-2783.41943	112.74716	224.25110	-2705.27808	66.10233	195.53937	-2912.44800	49.08447	231.88333	-2944.95483	62.26377	184.35374	-2889.88452	35.79816	117.46049
867	7.21667	0.00000	0.00000	0.00000	-2858.14453	1035.59033	362.33560	-2861.72485	708.13409	431.39432	-2885.79224	667.08466	427.24368	-2916.34595	734.02588	434.00476	-2930.30811	689.94861	428.24631	-2933.60767	555.57513	400.54456	-2969.11646	551.48663	267.01065	-2809.61255	444.40826	369.11362	-2783.20728	406.93811	369.56082	-2856.55273	404.24075	373.61661	-2822.39600	373.22333	370.32782	-2652.57861	191.28474	328.67709	-2656.08276	196.29538	243.43063	-2576.26904	213.90311	275.40277	-2733.01074	70.04530	359.06525	-2776.50171	74.60928	296.90475	-2762.21460	73.51068	261.06857	-2624.00952	1047.06726	169.19696	-2861.27319	1017.68140	101.36591	-2759.50439	680.17487	41.09127	-2774.97241	639.80145	47.76089	-2819.30225	693.69513	36.15146	-2825.52246	652.26953	41.52018	-2838.09888	507.97452	91.96310	-2848.90259	525.60992	211.26167	-2740.48096	311.58789	98.81286	-2740.57056	267.08948	101.30733	-2802.48193	305.87381	94.50603	-2795.34448	261.73373	97.83078	-2757.40259	89.01653	141.96169	-2783.77222	112.86062	224.24565	-2705.39746	66.34099	195.55916	-2912.56543	49.02980	231.81693	-2945.06738	62.10347	184.26297	-2889.95923	35.70907	117.38384
868	7.22500	0.00000	0.00000	0.00000	-2866.80591	1036.93115	360.42206	-2874.86279	710.63574	430.15607	-2899.55615	670.03259	425.72284	-2929.65283	737.48792	432.28168	-2943.32959	693.21790	426.36569	-2947.61157	558.73840	397.45816	-2983.78125	555.61108	263.91931	-2827.92505	443.10382	367.09317	-2802.82837	404.56754	367.72104	-2876.10449	404.62595	371.64276	-2843.33154	372.46323	368.48148	-2680.09253	184.15495	327.95374	-2683.73560	188.60760	243.01825	-2602.85840	203.89577	274.84909	-2764.09814	65.30809	358.35638	-2808.46533	72.41850	296.44342	-2793.42261	70.09295	260.62540	-2631.82080	1047.85962	169.32547	-2867.49219	1018.22046	99.77813	-2762.72705	680.80365	40.98091	-2778.38208	640.07562	47.85981	-2822.93408	693.32965	35.83197	-2829.13892	652.07776	41.29069	-2839.82422	507.56531	91.21310	-2851.99902	525.18103	210.80029	-2741.36914	311.98505	99.00777	-2741.36426	267.51306	101.51487	-2803.28833	305.79340	94.14078	-2795.93213	261.71899	97.57145	-2757.60571	89.16035	142.08319	-2784.13062	112.96019	224.30460	-2705.55200	66.55662	195.63251	-2912.62671	48.91028	231.76993	-2944.97192	61.75948	184.13295	-2889.98462	35.61438	117.33166
869	7.23333	0.00000	0.00000	0.00000	-2875.44263	1037.99475	358.59451	-2887.39429	713.05499	428.58102	-2912.82471	673.14880	424.01300	-2941.70679	740.68170	429.89679	-2959.68481	698.33868	421.91467	-2961.04565	561.64014	394.36563	-2997.65820	559.23871	261.07822	-2845.73242	441.55698	364.88718	-2822.44824	402.18304	365.85736	-2895.53613	404.99368	369.63474	-2864.13965	371.62335	366.75357	-2707.99292	176.94850	327.18246	-2710.92529	181.15041	242.22253	-2629.79858	193.57147	274.07999	-2796.84595	62.40756	358.51318	-2840.36865	69.96468	296.47775	-2825.65015	66.79313	260.82059	-2639.68921	1048.32251	169.59958	-2874.82300	1018.79010	98.34859	-2766.58643	681.21393	41.07617	-2781.95508	640.44946	47.95530	-2827.11108	693.15643	35.54077	-2832.67603	651.87463	41.13853	-2842.98633	507.33328	90.90608	-2855.03296	524.76672	210.37508	-2742.33862	312.34161	99.26287	-2742.01074	267.98596	101.76110	-2804.16724	305.74298	93.88692	-2796.66187	261.75046	97.41748	-2757.78003	89.34879	142.25439	-2784.54761	113.05489	224.44121	-2705.60645	66.83566	195.73776	-2912.72510	48.78815	231.70345	-2945.10645	61.57303	184.08571	-2890.01929	35.56740	117.29097
